<?xml version="1.0" encoding="utf-8"?>
<!-- Generator: Adobe Illustrator 25.1.0, SVG Export Plug-In . SVG Version: 6.00 Build 0)  -->
<svg version="1.1" id="Layer_1" xmlns="http://www.w3.org/2000/svg" xmlns:xlink="http://www.w3.org/1999/xlink" x="0px" y="0px"
	 viewBox="0 0 157 41" style="enable-background:new 0 0 157 41;" xml:space="preserve">
<style type="text/css">
	.st0{fill:url(#SVGID_1_);}
	.st1{fill:url(#SVGID_2_);}
	.st2{fill:url(#SVGID_3_);}
	.st3{fill:url(#SVGID_4_);}
	.st4{fill:url(#SVGID_5_);}
	.st5{fill:url(#SVGID_6_);}
	.st6{fill:url(#SVGID_7_);}
	.st7{fill:url(#SVGID_8_);}
	.st8{fill:url(#SVGID_9_);}
	.st9{fill:url(#SVGID_10_);}
	.st10{fill:url(#SVGID_11_);}
	.st11{fill:url(#SVGID_12_);}
	.st12{fill:url(#SVGID_13_);}
	.st13{fill:url(#SVGID_14_);}
	.st14{fill:url(#SVGID_15_);}
	.st15{fill:url(#SVGID_16_);}
	.st16{fill:url(#SVGID_17_);}
	.st17{fill:url(#SVGID_18_);}
	.st18{fill:url(#SVGID_19_);}
	.st19{fill:url(#SVGID_20_);}
	.st20{fill:url(#SVGID_21_);}
	.st21{fill:url(#SVGID_22_);}
	.st22{fill:url(#SVGID_23_);}
	.st23{fill:url(#SVGID_24_);}
	.st24{fill:url(#SVGID_25_);}
	.st25{fill:url(#SVGID_26_);}
	.st26{fill:url(#SVGID_27_);}
	.st27{fill:url(#SVGID_28_);}
	.st28{fill:url(#SVGID_29_);}
	.st29{fill:url(#SVGID_30_);}
	.st30{fill:url(#SVGID_31_);}
	.st31{fill:url(#SVGID_32_);}
	.st32{fill:url(#SVGID_33_);}
	.st33{fill:url(#SVGID_34_);}
	.st34{fill:url(#SVGID_35_);}
	.st35{fill:url(#SVGID_36_);}
	.st36{fill:url(#SVGID_37_);}
	.st37{fill:url(#SVGID_38_);}
	.st38{fill:url(#SVGID_39_);}
	.st39{fill:url(#SVGID_40_);}
	.st40{fill:url(#SVGID_41_);}
	.st41{fill:url(#SVGID_42_);}
</style>
<g>
	<linearGradient id="SVGID_1_" gradientUnits="userSpaceOnUse" x1="77.1978" y1="15.6096" x2="152.4659" y2="15.6096">
		<stop  offset="0" style="stop-color:#9D9D9C"/>
		<stop  offset="0.1844" style="stop-color:#1D1D1B"/>
		<stop  offset="0.2442" style="stop-color:#353533"/>
		<stop  offset="0.3698" style="stop-color:#727270"/>
		<stop  offset="0.4525" style="stop-color:#9D9D9C"/>
		<stop  offset="0.7095" style="stop-color:#1D1D1B"/>
		<stop  offset="0.7743" style="stop-color:#353533"/>
		<stop  offset="0.9104" style="stop-color:#727270"/>
		<stop  offset="1" style="stop-color:#9D9D9C"/>
	</linearGradient>
	<path class="st0" d="M77.1,15.6c0-3.4,2.6-5.9,6.1-5.9c1.9,0,3.5,0.7,4.5,1.9l-1.4,1.3c-0.8-0.9-1.9-1.3-3.1-1.3
		c-2.4,0-4.1,1.7-4.1,4c0,2.4,1.7,4,4.1,4c1.2,0,2.2-0.4,3.1-1.4l1.4,1.3c-1.1,1.2-2.7,1.9-4.5,1.9C79.7,21.5,77.1,19,77.1,15.6z"/>
	<linearGradient id="SVGID_2_" gradientUnits="userSpaceOnUse" x1="77.1978" y1="16.6555" x2="152.4659" y2="16.6555">
		<stop  offset="0" style="stop-color:#9D9D9C"/>
		<stop  offset="0.1844" style="stop-color:#1D1D1B"/>
		<stop  offset="0.2442" style="stop-color:#353533"/>
		<stop  offset="0.3698" style="stop-color:#727270"/>
		<stop  offset="0.4525" style="stop-color:#9D9D9C"/>
		<stop  offset="0.7095" style="stop-color:#1D1D1B"/>
		<stop  offset="0.7743" style="stop-color:#353533"/>
		<stop  offset="0.9104" style="stop-color:#727270"/>
		<stop  offset="1" style="stop-color:#9D9D9C"/>
	</linearGradient>
	<path class="st1" d="M89.6,12h2.1v7.7h4.8v1.7h-6.9V12z"/>
	<linearGradient id="SVGID_3_" gradientUnits="userSpaceOnUse" x1="77.1978" y1="16.6555" x2="152.4659" y2="16.6555">
		<stop  offset="0" style="stop-color:#9D9D9C"/>
		<stop  offset="0.1844" style="stop-color:#1D1D1B"/>
		<stop  offset="0.2442" style="stop-color:#353533"/>
		<stop  offset="0.3698" style="stop-color:#727270"/>
		<stop  offset="0.4525" style="stop-color:#9D9D9C"/>
		<stop  offset="0.7095" style="stop-color:#1D1D1B"/>
		<stop  offset="0.7743" style="stop-color:#353533"/>
		<stop  offset="0.9104" style="stop-color:#727270"/>
		<stop  offset="1" style="stop-color:#9D9D9C"/>
	</linearGradient>
	<path class="st2" d="M105.3,19.7v1.7H98V12h7.1v1.7h-5v2.1h4.5v1.6h-4.5v2.3H105.3z"/>
	<linearGradient id="SVGID_4_" gradientUnits="userSpaceOnUse" x1="77.1978" y1="16.6555" x2="152.4659" y2="16.6555">
		<stop  offset="0" style="stop-color:#9D9D9C"/>
		<stop  offset="0.1844" style="stop-color:#1D1D1B"/>
		<stop  offset="0.2442" style="stop-color:#353533"/>
		<stop  offset="0.3698" style="stop-color:#727270"/>
		<stop  offset="0.4525" style="stop-color:#9D9D9C"/>
		<stop  offset="0.7095" style="stop-color:#1D1D1B"/>
		<stop  offset="0.7743" style="stop-color:#353533"/>
		<stop  offset="0.9104" style="stop-color:#727270"/>
		<stop  offset="1" style="stop-color:#9D9D9C"/>
	</linearGradient>
	<path class="st3" d="M113.5,19.3h-4.7l-0.9,2h-2l4.2-9.3h2l4.2,9.3h-2L113.5,19.3z M112.9,17.7l-1.7-3.9l-1.7,3.9H112.9z"/>
	<linearGradient id="SVGID_5_" gradientUnits="userSpaceOnUse" x1="77.1978" y1="16.6555" x2="152.4659" y2="16.6555">
		<stop  offset="0" style="stop-color:#9D9D9C"/>
		<stop  offset="0.1844" style="stop-color:#1D1D1B"/>
		<stop  offset="0.2442" style="stop-color:#353533"/>
		<stop  offset="0.3698" style="stop-color:#727270"/>
		<stop  offset="0.4525" style="stop-color:#9D9D9C"/>
		<stop  offset="0.7095" style="stop-color:#1D1D1B"/>
		<stop  offset="0.7743" style="stop-color:#353533"/>
		<stop  offset="0.9104" style="stop-color:#727270"/>
		<stop  offset="1" style="stop-color:#9D9D9C"/>
	</linearGradient>
	<path class="st4" d="M126.4,12v9.3h-1.7l-4.9-5.9v5.9h-2.1V12h1.7l4.9,5.9V12H126.4z"/>
	<linearGradient id="SVGID_6_" gradientUnits="userSpaceOnUse" x1="77.1978" y1="16.6555" x2="152.4659" y2="16.6555">
		<stop  offset="0" style="stop-color:#9D9D9C"/>
		<stop  offset="0.1844" style="stop-color:#1D1D1B"/>
		<stop  offset="0.2442" style="stop-color:#353533"/>
		<stop  offset="0.3698" style="stop-color:#727270"/>
		<stop  offset="0.4525" style="stop-color:#9D9D9C"/>
		<stop  offset="0.7095" style="stop-color:#1D1D1B"/>
		<stop  offset="0.7743" style="stop-color:#353533"/>
		<stop  offset="0.9104" style="stop-color:#727270"/>
		<stop  offset="1" style="stop-color:#9D9D9C"/>
	</linearGradient>
	<path class="st5" d="M129.2,12h2.1v9.3h-2.1V12z"/>
	<linearGradient id="SVGID_7_" gradientUnits="userSpaceOnUse" x1="77.1978" y1="16.6555" x2="152.4659" y2="16.6555">
		<stop  offset="0" style="stop-color:#9D9D9C"/>
		<stop  offset="0.1844" style="stop-color:#1D1D1B"/>
		<stop  offset="0.2442" style="stop-color:#353533"/>
		<stop  offset="0.3698" style="stop-color:#727270"/>
		<stop  offset="0.4525" style="stop-color:#9D9D9C"/>
		<stop  offset="0.7095" style="stop-color:#1D1D1B"/>
		<stop  offset="0.7743" style="stop-color:#353533"/>
		<stop  offset="0.9104" style="stop-color:#727270"/>
		<stop  offset="1" style="stop-color:#9D9D9C"/>
	</linearGradient>
	<path class="st6" d="M142.7,12v9.3H141l-4.9-5.9v5.9h-2.1V12h1.7l4.9,5.9V12H142.7z"/>
	<linearGradient id="SVGID_8_" gradientUnits="userSpaceOnUse" x1="77.1978" y1="16.6638" x2="152.4659" y2="16.6638">
		<stop  offset="0" style="stop-color:#9D9D9C"/>
		<stop  offset="0.1844" style="stop-color:#1D1D1B"/>
		<stop  offset="0.2442" style="stop-color:#353533"/>
		<stop  offset="0.3698" style="stop-color:#727270"/>
		<stop  offset="0.4525" style="stop-color:#9D9D9C"/>
		<stop  offset="0.7095" style="stop-color:#1D1D1B"/>
		<stop  offset="0.7743" style="stop-color:#353533"/>
		<stop  offset="0.9104" style="stop-color:#727270"/>
		<stop  offset="1" style="stop-color:#9D9D9C"/>
	</linearGradient>
	<path class="st7" d="M151.8,16.6h1.9v3.7c-1,0.8-2.4,1.2-3.7,1.2c-3,0-5.2-2.1-5.2-4.8s2.2-4.8,5.2-4.8c1.7,0,3,0.5,3.9,1.6
		l-1.3,1.3c-0.7-0.8-1.5-1.1-2.5-1.1c-1.8,0-3.1,1.3-3.1,3.1s1.3,3.1,3.2,3.1c0.6,0,1.2-0.1,1.7-0.4V16.6z"/>
	<linearGradient id="SVGID_9_" gradientUnits="userSpaceOnUse" x1="77.1978" y1="30.0143" x2="152.4659" y2="30.0143">
		<stop  offset="0" style="stop-color:#9D9D9C"/>
		<stop  offset="0.1844" style="stop-color:#1D1D1B"/>
		<stop  offset="0.2442" style="stop-color:#353533"/>
		<stop  offset="0.3698" style="stop-color:#727270"/>
		<stop  offset="0.4525" style="stop-color:#9D9D9C"/>
		<stop  offset="0.7095" style="stop-color:#1D1D1B"/>
		<stop  offset="0.7743" style="stop-color:#353533"/>
		<stop  offset="0.9104" style="stop-color:#727270"/>
		<stop  offset="1" style="stop-color:#9D9D9C"/>
	</linearGradient>
	<path class="st8" d="M77.3,26.4h3.1c2.3,0,3.9,1.4,3.9,3.6c0,2.1-1.6,3.6-3.9,3.6h-3.1V26.4z M80.4,32.5c1.6,0,2.6-1,2.6-2.5
		c0-1.5-1-2.4-2.6-2.4h-1.7v4.9H80.4z"/>
	<linearGradient id="SVGID_10_" gradientUnits="userSpaceOnUse" x1="77.1978" y1="30.0143" x2="152.4659" y2="30.0143">
		<stop  offset="0" style="stop-color:#9D9D9C"/>
		<stop  offset="0.1844" style="stop-color:#1D1D1B"/>
		<stop  offset="0.2442" style="stop-color:#353533"/>
		<stop  offset="0.3698" style="stop-color:#727270"/>
		<stop  offset="0.4525" style="stop-color:#9D9D9C"/>
		<stop  offset="0.7095" style="stop-color:#1D1D1B"/>
		<stop  offset="0.7743" style="stop-color:#353533"/>
		<stop  offset="0.9104" style="stop-color:#727270"/>
		<stop  offset="1" style="stop-color:#9D9D9C"/>
	</linearGradient>
	<path class="st9" d="M85.8,26.4h1.3v7.1h-1.3V26.4z"/>
	<linearGradient id="SVGID_11_" gradientUnits="userSpaceOnUse" x1="77.1978" y1="30.0143" x2="152.4659" y2="30.0143">
		<stop  offset="0" style="stop-color:#9D9D9C"/>
		<stop  offset="0.1844" style="stop-color:#1D1D1B"/>
		<stop  offset="0.2442" style="stop-color:#353533"/>
		<stop  offset="0.3698" style="stop-color:#727270"/>
		<stop  offset="0.4525" style="stop-color:#9D9D9C"/>
		<stop  offset="0.7095" style="stop-color:#1D1D1B"/>
		<stop  offset="0.7743" style="stop-color:#353533"/>
		<stop  offset="0.9104" style="stop-color:#727270"/>
		<stop  offset="1" style="stop-color:#9D9D9C"/>
	</linearGradient>
	<path class="st10" d="M88.4,32.8l0.5-1c0.6,0.5,1.5,0.8,2.4,0.8c1.1,0,1.6-0.4,1.6-0.9c0-1.5-4.2-0.5-4.2-3.2
		c0-1.2,0.9-2.1,2.9-2.1c0.9,0,1.8,0.2,2.4,0.6l-0.4,1c-0.6-0.4-1.3-0.6-2-0.6c-1.1,0-1.6,0.4-1.6,1c0,1.5,4.2,0.5,4.2,3.2
		c0,1.1-0.9,2.1-2.9,2.1C90.1,33.7,89,33.3,88.4,32.8z"/>
	<linearGradient id="SVGID_12_" gradientUnits="userSpaceOnUse" x1="77.1978" y1="30.0143" x2="152.4659" y2="30.0143">
		<stop  offset="0" style="stop-color:#9D9D9C"/>
		<stop  offset="0.1844" style="stop-color:#1D1D1B"/>
		<stop  offset="0.2442" style="stop-color:#353533"/>
		<stop  offset="0.3698" style="stop-color:#727270"/>
		<stop  offset="0.4525" style="stop-color:#9D9D9C"/>
		<stop  offset="0.7095" style="stop-color:#1D1D1B"/>
		<stop  offset="0.7743" style="stop-color:#353533"/>
		<stop  offset="0.9104" style="stop-color:#727270"/>
		<stop  offset="1" style="stop-color:#9D9D9C"/>
	</linearGradient>
	<path class="st11" d="M96.8,27.6h-2.4v-1.1h6.1v1.1h-2.4v6h-1.3V27.6z"/>
	<linearGradient id="SVGID_13_" gradientUnits="userSpaceOnUse" x1="77.1978" y1="30.0143" x2="152.4659" y2="30.0143">
		<stop  offset="0" style="stop-color:#9D9D9C"/>
		<stop  offset="0.1844" style="stop-color:#1D1D1B"/>
		<stop  offset="0.2442" style="stop-color:#353533"/>
		<stop  offset="0.3698" style="stop-color:#727270"/>
		<stop  offset="0.4525" style="stop-color:#9D9D9C"/>
		<stop  offset="0.7095" style="stop-color:#1D1D1B"/>
		<stop  offset="0.7743" style="stop-color:#353533"/>
		<stop  offset="0.9104" style="stop-color:#727270"/>
		<stop  offset="1" style="stop-color:#9D9D9C"/>
	</linearGradient>
	<path class="st12" d="M106.2,33.6l-1.5-2.1c-0.1,0-0.2,0-0.3,0h-1.6v2.1h-1.3v-7.1h2.9c1.9,0,3,1,3,2.5c0,1.1-0.6,1.9-1.5,2.3
		l1.6,2.3H106.2z M104.4,27.6h-1.6v2.8h1.6c1.2,0,1.8-0.5,1.8-1.4S105.6,27.6,104.4,27.6z"/>
	<linearGradient id="SVGID_14_" gradientUnits="userSpaceOnUse" x1="77.1978" y1="30.0143" x2="152.4659" y2="30.0143">
		<stop  offset="0" style="stop-color:#9D9D9C"/>
		<stop  offset="0.1844" style="stop-color:#1D1D1B"/>
		<stop  offset="0.2442" style="stop-color:#353533"/>
		<stop  offset="0.3698" style="stop-color:#727270"/>
		<stop  offset="0.4525" style="stop-color:#9D9D9C"/>
		<stop  offset="0.7095" style="stop-color:#1D1D1B"/>
		<stop  offset="0.7743" style="stop-color:#353533"/>
		<stop  offset="0.9104" style="stop-color:#727270"/>
		<stop  offset="1" style="stop-color:#9D9D9C"/>
	</linearGradient>
	<path class="st13" d="M109,26.4h1.3v7.1H109V26.4z"/>
	<linearGradient id="SVGID_15_" gradientUnits="userSpaceOnUse" x1="77.1978" y1="30.0143" x2="152.4659" y2="30.0143">
		<stop  offset="0" style="stop-color:#9D9D9C"/>
		<stop  offset="0.1844" style="stop-color:#1D1D1B"/>
		<stop  offset="0.2442" style="stop-color:#353533"/>
		<stop  offset="0.3698" style="stop-color:#727270"/>
		<stop  offset="0.4525" style="stop-color:#9D9D9C"/>
		<stop  offset="0.7095" style="stop-color:#1D1D1B"/>
		<stop  offset="0.7743" style="stop-color:#353533"/>
		<stop  offset="0.9104" style="stop-color:#727270"/>
		<stop  offset="1" style="stop-color:#9D9D9C"/>
	</linearGradient>
	<path class="st14" d="M118.6,31.6c0,1.2-1,1.9-2.8,1.9h-3.6v-7.1h3.3c1.7,0,2.6,0.7,2.6,1.9c0,0.7-0.4,1.3-0.9,1.6
		C118.1,30.1,118.6,30.7,118.6,31.6z M113.6,27.5v2h1.9c0.9,0,1.4-0.3,1.4-1c0-0.7-0.5-1-1.4-1H113.6z M117.3,31.5
		c0-0.7-0.5-1-1.5-1h-2.1v2.1h2.1C116.7,32.5,117.3,32.2,117.3,31.5z"/>
	<linearGradient id="SVGID_16_" gradientUnits="userSpaceOnUse" x1="77.1978" y1="30.0656" x2="152.4659" y2="30.0656">
		<stop  offset="0" style="stop-color:#9D9D9C"/>
		<stop  offset="0.1844" style="stop-color:#1D1D1B"/>
		<stop  offset="0.2442" style="stop-color:#353533"/>
		<stop  offset="0.3698" style="stop-color:#727270"/>
		<stop  offset="0.4525" style="stop-color:#9D9D9C"/>
		<stop  offset="0.7095" style="stop-color:#1D1D1B"/>
		<stop  offset="0.7743" style="stop-color:#353533"/>
		<stop  offset="0.9104" style="stop-color:#727270"/>
		<stop  offset="1" style="stop-color:#9D9D9C"/>
	</linearGradient>
	<path class="st15" d="M120,30.5v-4h1.3v4c0,1.5,0.7,2.1,1.8,2.1c1.2,0,1.8-0.6,1.8-2.1v-4h1.3v4c0,2.1-1.2,3.2-3.1,3.2
		C121.1,33.7,120,32.6,120,30.5z"/>
	<linearGradient id="SVGID_17_" gradientUnits="userSpaceOnUse" x1="77.1978" y1="30.0143" x2="152.4659" y2="30.0143">
		<stop  offset="0" style="stop-color:#9D9D9C"/>
		<stop  offset="0.1844" style="stop-color:#1D1D1B"/>
		<stop  offset="0.2442" style="stop-color:#353533"/>
		<stop  offset="0.3698" style="stop-color:#727270"/>
		<stop  offset="0.4525" style="stop-color:#9D9D9C"/>
		<stop  offset="0.7095" style="stop-color:#1D1D1B"/>
		<stop  offset="0.7743" style="stop-color:#353533"/>
		<stop  offset="0.9104" style="stop-color:#727270"/>
		<stop  offset="1" style="stop-color:#9D9D9C"/>
	</linearGradient>
	<path class="st16" d="M129.4,27.6H127v-1.1h6.1v1.1h-2.4v6h-1.3V27.6z"/>
	<linearGradient id="SVGID_18_" gradientUnits="userSpaceOnUse" x1="77.1978" y1="30.0143" x2="152.4659" y2="30.0143">
		<stop  offset="0" style="stop-color:#9D9D9C"/>
		<stop  offset="0.1844" style="stop-color:#1D1D1B"/>
		<stop  offset="0.2442" style="stop-color:#353533"/>
		<stop  offset="0.3698" style="stop-color:#727270"/>
		<stop  offset="0.4525" style="stop-color:#9D9D9C"/>
		<stop  offset="0.7095" style="stop-color:#1D1D1B"/>
		<stop  offset="0.7743" style="stop-color:#353533"/>
		<stop  offset="0.9104" style="stop-color:#727270"/>
		<stop  offset="1" style="stop-color:#9D9D9C"/>
	</linearGradient>
	<path class="st17" d="M134.1,26.4h1.3v7.1h-1.3V26.4z"/>
	<linearGradient id="SVGID_19_" gradientUnits="userSpaceOnUse" x1="77.1978" y1="30.0143" x2="152.4659" y2="30.0143">
		<stop  offset="0" style="stop-color:#9D9D9C"/>
		<stop  offset="0.1844" style="stop-color:#1D1D1B"/>
		<stop  offset="0.2442" style="stop-color:#353533"/>
		<stop  offset="0.3698" style="stop-color:#727270"/>
		<stop  offset="0.4525" style="stop-color:#9D9D9C"/>
		<stop  offset="0.7095" style="stop-color:#1D1D1B"/>
		<stop  offset="0.7743" style="stop-color:#353533"/>
		<stop  offset="0.9104" style="stop-color:#727270"/>
		<stop  offset="1" style="stop-color:#9D9D9C"/>
	</linearGradient>
	<path class="st18" d="M136.8,30c0-2.1,1.6-3.7,3.8-3.7c2.2,0,3.8,1.6,3.8,3.7c0,2.1-1.6,3.7-3.8,3.7
		C138.5,33.7,136.8,32.1,136.8,30z M143.2,30c0-1.5-1.1-2.5-2.5-2.5s-2.5,1.1-2.5,2.5c0,1.5,1.1,2.5,2.5,2.5S143.2,31.5,143.2,30z"
		/>
	<linearGradient id="SVGID_20_" gradientUnits="userSpaceOnUse" x1="77.1978" y1="30.0143" x2="152.4659" y2="30.0143">
		<stop  offset="0" style="stop-color:#9D9D9C"/>
		<stop  offset="0.1844" style="stop-color:#1D1D1B"/>
		<stop  offset="0.2442" style="stop-color:#353533"/>
		<stop  offset="0.3698" style="stop-color:#727270"/>
		<stop  offset="0.4525" style="stop-color:#9D9D9C"/>
		<stop  offset="0.7095" style="stop-color:#1D1D1B"/>
		<stop  offset="0.7743" style="stop-color:#353533"/>
		<stop  offset="0.9104" style="stop-color:#727270"/>
		<stop  offset="1" style="stop-color:#9D9D9C"/>
	</linearGradient>
	<path class="st19" d="M152.3,26.4v7.1h-1.1l-3.9-4.8v4.8H146v-7.1h1.1l3.9,4.8v-4.8H152.3z"/>
</g>
<g>
	<linearGradient id="SVGID_21_" gradientUnits="userSpaceOnUse" x1="11.9584" y1="49.481" x2="62.5602" y2="-1.1208">
		<stop  offset="0" style="stop-color:#E74922"/>
		<stop  offset="0.1177" style="stop-color:#E52F1C"/>
		<stop  offset="0.2558" style="stop-color:#E31917"/>
		<stop  offset="0.3862" style="stop-color:#E20B14"/>
		<stop  offset="0.5" style="stop-color:#E20613"/>
		<stop  offset="0.6273" style="stop-color:#E20A14"/>
		<stop  offset="0.7447" style="stop-color:#E31516"/>
		<stop  offset="0.8584" style="stop-color:#E5281B"/>
		<stop  offset="0.969" style="stop-color:#E64220"/>
		<stop  offset="0.9951" style="stop-color:#E74922"/>
	</linearGradient>
	<path class="st20" d="M27.4,10.2c-0.3-0.2-0.7-0.4-1.1-0.6c0-0.9,0-1.9,0-2.9c-1.7,0-3.2,0-4.9,0c0,2.3,0,4.6,0,6.9
		c-0.8,0.4-1.5,0.8-2.3,1.1c-1.5,0.7-2.9,1.5-4.4,2.2C14.6,17,14.3,17,14,17c-1.4-0.1-2.7,0-4,0.5c-1.8,0.7-2.8,2-3.1,3.8
		c0,0.2-0.1,0.4-0.1,0.7c0,0.5-0.3,0.8-0.7,0.8c-0.5,0-0.8-0.3-0.7-0.8c0.1-2.5,1.2-4.5,3.6-5.6c1.5-0.7,3.1-0.9,4.8-0.8
		c0.2,0,0.4,0,0.5-0.1c1.8-0.9,3.6-1.8,5.4-2.7c0.1,0,0.1-0.1,0.2-0.1c0-0.3,0-0.7,0-1.1c0-1.6,0-3.2,0-4.9c0-0.9,0.6-1.5,1.6-1.5
		c1.6,0,3.1,0,4.7,0c0.7,0,1.3,0.5,1.4,1.3c0.1,0.5,0.1,1,0.1,1.5c0,0.1,0,0.2,0,0.3c0.6-0.3,1.1-0.6,1.6-0.9
		c3.3-1.9,6.6-3.7,9.9-5.6c0.9-0.5,1.9-0.5,2.9-0.1c0.9,0.4,1.8,0.9,2.7,1.4c3.9,2.3,7.9,4.5,11.8,6.8C60,12,63.4,14,66.8,16
		c1,0.6,2,1.2,3,1.7c0.1,0.1,0.3,0.1,0.5,0.1c1.7,0.1,3.2,0.6,4.4,2c0.5,0.6,0.9,1.4,1,2.2c0.1,0.5-0.1,0.8-0.6,0.9
		c-0.4,0.1-0.7-0.2-0.8-0.5c-0.4-1.8-1.6-2.6-3.3-2.9c-0.1,0-0.1,0-0.2,0c-1,0.1-1.8-0.4-2.6-0.9c-2.4-1.4-4.7-2.8-7.1-4.1
		c-2.5-1.5-5-2.9-7.5-4.4c-3.3-1.9-6.5-3.8-9.8-5.7c-0.5-0.3-1-0.6-1.5-0.9c-0.8-0.4-1.5-0.5-2.4,0c-2.2,1.3-4.5,2.5-6.7,3.8
		c-1.8,1-3.6,2-5.4,3C27.5,10.1,27.5,10.2,27.4,10.2z"/>
	<linearGradient id="SVGID_22_" gradientUnits="userSpaceOnUse" x1="25.6331" y1="23.6738" x2="48.6049" y2="0.702">
		<stop  offset="5.376340e-03" style="stop-color:#FFFFFF"/>
		<stop  offset="0.25" style="stop-color:#9C9B9B"/>
		<stop  offset="0.5" style="stop-color:#FFFFFF"/>
		<stop  offset="0.75" style="stop-color:#9C9B9B"/>
		<stop  offset="1" style="stop-color:#E3EAE8"/>
	</linearGradient>
	<path class="st21" d="M43.7,8.7c0.2,1,0.5,1.9-0.2,2.7c-0.9-0.1-1.7,0.1-2.5,0.3c-0.6,0.2-1.1,0.1-1.7,0.1c-1.2,0-2.5-0.1-3.7-0.2
		c-0.1,0-0.2,0-0.3,0c-0.4-0.4-0.6-0.9-0.7-1.4c-0.2-0.8,0.2-1.5,1-1.9c0.5-0.3,1.1-0.4,1.7-0.4c1.4-0.1,2.7,0.1,4.1,0.3
		C42.2,8.3,42.9,8.5,43.7,8.7z"/>
	<linearGradient id="SVGID_23_" gradientUnits="userSpaceOnUse" x1="26.7586" y1="24.7993" x2="49.7304" y2="1.8275">
		<stop  offset="5.376340e-03" style="stop-color:#FFFFFF"/>
		<stop  offset="0.25" style="stop-color:#9C9B9B"/>
		<stop  offset="0.5" style="stop-color:#FFFFFF"/>
		<stop  offset="0.75" style="stop-color:#9C9B9B"/>
		<stop  offset="1" style="stop-color:#E3EAE8"/>
	</linearGradient>
	<path class="st22" d="M40.5,15.2c-0.8-0.7-1.8-0.5-2.7-0.5c-0.3,0-0.7,0-1,0c-0.5,0-0.9,0.1-1.3,0.3c-0.1,0.1-0.3,0.1-0.6,0.2
		c0-0.4,0.1-0.6,0.1-0.9c0-0.6,0.1-1.2,0.1-1.8c0-0.6,0.1-0.7,0.7-0.7c0.6,0,1.1,0,1.7,0.1c0.9,0,1.8,0.1,2.7,0.2c0,0,0.1,0,0.2,0
		C40.5,13.1,40.6,14.1,40.5,15.2C40.6,15.2,40.6,15.2,40.5,15.2z"/>
	<linearGradient id="SVGID_24_" gradientUnits="userSpaceOnUse" x1="29.9098" y1="27.9505" x2="52.8816" y2="4.9787">
		<stop  offset="5.376340e-03" style="stop-color:#FFFFFF"/>
		<stop  offset="0.25" style="stop-color:#9C9B9B"/>
		<stop  offset="0.5" style="stop-color:#FFFFFF"/>
		<stop  offset="0.75" style="stop-color:#9C9B9B"/>
		<stop  offset="1" style="stop-color:#E3EAE8"/>
	</linearGradient>
	<path class="st23" d="M45.6,16.9c-0.1,0.1-0.2,0.1-0.2,0.2c-1,0.1-1.8-0.3-2.4-0.9c-1-0.9-1.7-1.9-2-3.2c-0.1-0.2-0.1-0.5,0-0.8
		c0-0.1,0.2-0.4,0.3-0.4c0.5-0.1,1-0.1,1.5,0.1c0,0.1,0,0.3,0,0.4c-0.1,1.5,0.5,2.7,1.9,3.4c0.2,0.1,0.3,0.2,0.5,0.3
		C45.4,16.4,45.6,16.6,45.6,16.9z"/>
	<linearGradient id="SVGID_25_" gradientUnits="userSpaceOnUse" x1="28.4313" y1="26.4721" x2="51.4032" y2="3.5002">
		<stop  offset="5.376340e-03" style="stop-color:#FFFFFF"/>
		<stop  offset="0.25" style="stop-color:#9C9B9B"/>
		<stop  offset="0.5" style="stop-color:#FFFFFF"/>
		<stop  offset="0.75" style="stop-color:#9C9B9B"/>
		<stop  offset="1" style="stop-color:#E3EAE8"/>
	</linearGradient>
	<path class="st24" d="M45.8,11.4c-0.7,0-1.4,0-2.1,0c0.1-0.2,0.2-0.3,0.3-0.4c0.5-0.6,0.6-1.4,0.2-2C44.1,9,44.1,8.8,44,8.6
		c0.7,0.1,1.2,0.1,1.8,0.2C46.1,9.6,46.1,10.6,45.8,11.4z"/>
	<linearGradient id="SVGID_26_" gradientUnits="userSpaceOnUse" x1="21.578" y1="17.6115" x2="24.3293" y2="17.6115">
		<stop  offset="0" style="stop-color:#FFF27F"/>
		<stop  offset="0.1844" style="stop-color:#D4C100"/>
		<stop  offset="0.245" style="stop-color:#DCCA18"/>
		<stop  offset="0.3724" style="stop-color:#F1E255"/>
		<stop  offset="0.4525" style="stop-color:#FFF27F"/>
		<stop  offset="0.7095" style="stop-color:#D4C100"/>
		<stop  offset="0.7752" style="stop-color:#DCCA18"/>
		<stop  offset="0.9132" style="stop-color:#F1E255"/>
		<stop  offset="1" style="stop-color:#FFF27F"/>
	</linearGradient>
	<path class="st25" d="M24.2,18.9c-0.5-0.2-0.9-0.4-1.3-0.4c-0.4,0-0.8,0.2-1.3,0.4c0.6-0.8,0.6-1.7,0-2.5c0.5,0.2,0.9,0.4,1.4,0.4
		c0.4,0,0.9-0.2,1.4-0.4C23.6,17.2,23.6,18,24.2,18.9z"/>
	<linearGradient id="SVGID_27_" gradientUnits="userSpaceOnUse" x1="25.692" y1="14.3403" x2="28.4606" y2="14.3403">
		<stop  offset="0" style="stop-color:#FFF27F"/>
		<stop  offset="0.1844" style="stop-color:#D4C100"/>
		<stop  offset="0.245" style="stop-color:#DCCA18"/>
		<stop  offset="0.3724" style="stop-color:#F1E255"/>
		<stop  offset="0.4525" style="stop-color:#FFF27F"/>
		<stop  offset="0.7095" style="stop-color:#D4C100"/>
		<stop  offset="0.7752" style="stop-color:#DCCA18"/>
		<stop  offset="0.9132" style="stop-color:#F1E255"/>
		<stop  offset="1" style="stop-color:#FFF27F"/>
	</linearGradient>
	<path class="st26" d="M28.5,13.1c-0.7,0.8-0.7,1.6-0.1,2.5c-0.5-0.1-0.9-0.4-1.3-0.4c-0.4,0-0.8,0.2-1.3,0.4c0.6-0.9,0.7-1.7,0-2.6
		c0.5,0.2,0.9,0.4,1.4,0.4C27.5,13.5,27.9,13.2,28.5,13.1z"/>
	<linearGradient id="SVGID_28_" gradientUnits="userSpaceOnUse" x1="48.6929" y1="12.3696" x2="51.1465" y2="12.3696">
		<stop  offset="0" style="stop-color:#FFF27F"/>
		<stop  offset="0.1844" style="stop-color:#D4C100"/>
		<stop  offset="0.245" style="stop-color:#DCCA18"/>
		<stop  offset="0.3724" style="stop-color:#F1E255"/>
		<stop  offset="0.4525" style="stop-color:#FFF27F"/>
		<stop  offset="0.7095" style="stop-color:#D4C100"/>
		<stop  offset="0.7752" style="stop-color:#DCCA18"/>
		<stop  offset="0.9132" style="stop-color:#F1E255"/>
		<stop  offset="1" style="stop-color:#FFF27F"/>
	</linearGradient>
	<path class="st27" d="M51,13.6c-0.4-0.1-0.8-0.3-1.2-0.3c-0.4,0-0.8,0.2-1.2,0.4c0.1-0.4,0.3-0.8,0.3-1.2c0-0.4-0.2-0.8-0.3-1.2
		c0.4,0.1,0.8,0.3,1.2,0.3c0.4,0,0.9-0.2,1.2-0.3c-0.1,0.4-0.4,0.8-0.4,1.2C50.7,12.7,50.9,13.2,51,13.6z"/>
	<g>
		<g>
			<linearGradient id="SVGID_29_" gradientUnits="userSpaceOnUse" x1="15.5492" y1="48.0666" x2="63.3869" y2="20.4475">
				<stop  offset="5.376340e-03" style="stop-color:#FFFFFF"/>
				<stop  offset="0.25" style="stop-color:#9C9B9B"/>
				<stop  offset="0.5" style="stop-color:#FFFFFF"/>
				<stop  offset="0.75" style="stop-color:#9C9B9B"/>
				<stop  offset="1" style="stop-color:#E3EAE8"/>
			</linearGradient>
			<path class="st28" d="M10,38.9c0-3.2,0-6.5,0-9.7c1.3,0.8,2.7,1,4.2,0.8c1.5-0.2,2.7-0.9,3.7-2c0,0,0,0,0.1,0c0,0.6,0,1.2,0,1.8
				c6.3,0,12.7,0,19,0c0.3-0.6,0.6-1.1,0.9-1.7c0.7,0,1.4,0,2.1,0c0.3,0.6,0.6,1.2,0.9,1.7c1.8,0,3.5,0,5.3,0c0-0.9,0-1.8,0-2.6
				c0,0,0.1,0,0.1,0c0.8,0.9,1.6,1.8,2.4,2.7c3,0,6,0,9,0c0-0.9,0-1.8,0-2.6c0,0,0.1,0,0.1,0c0.8,0.9,1.6,1.8,2.4,2.7
				c0.8,0,1.7,0,2.5,0c0-0.6,0-1.1,0-1.8c2,2.1,4.4,2.4,7,1.7c0,3.1,0,6.1,0,9.2C49.8,38.9,29.9,38.9,10,38.9z M67.7,37
				c0.1-1.7,0.2-3.3,0.3-5c-0.5,0-0.9,0-1.4,0c0,1.1-0.1,2.1-0.1,3.2c0,0-0.1,0-0.1,0c-0.6-1.1-1.2-2.1-1.8-3.2c-0.6,0-1.2,0-1.8,0
				c-0.1,1.7-0.2,3.3-0.3,4.9c0.5,0,0.9,0,1.4,0c0-1,0.1-2.1,0.1-3.1c0,0,0,0,0.1,0c0.6,1,1.2,2.1,1.8,3.1C66.5,37,67.1,37,67.7,37z
				 M55.8,34.7c0,1.1,0.7,2,1.7,2.3c0.7,0.2,1.5,0.2,2.2,0.1c1.2-0.3,1.9-1.1,2-2.3c0.1-1.2-0.5-2.2-1.6-2.6c-0.7-0.2-1.3-0.3-2-0.1
				C56.7,32.2,55.8,33.3,55.8,34.7z M37.4,32c-0.1,1.7-0.1,3.3-0.2,5c0,0,0.1,0,0.1,0c0.9,0,1.9,0,2.8,0c0.2,0,0.4,0,0.7-0.1
				c0.6-0.2,0.9-0.6,1-1.2c0-0.6-0.2-0.9-0.8-1.2c0,0-0.1,0-0.1-0.1c0,0,0.1-0.1,0.1-0.1c0.6-0.2,0.8-0.9,0.8-1.4
				c-0.1-0.6-0.4-0.9-1.1-0.9C39.6,32,38.5,32,37.4,32z M12,32c-0.1,1.7-0.1,3.3-0.2,4.9c1,0,2,0,3.1,0c0.9,0,1.5-0.6,1.9-1.4
				c0.2-0.5,0.2-1,0.2-1.6c-0.1-1-0.8-1.8-1.7-1.9C14.2,32,13.1,32,12,32z M42.8,32c-0.1,1.1-0.1,2.3-0.2,3.4c0,0.8,0.3,1.2,1,1.5
				c0.9,0.3,1.7,0.3,2.6,0.1c0.8-0.2,1.3-0.7,1.3-1.6c0-0.9,0.1-1.7,0.2-2.6c0-0.3,0-0.5,0.1-0.8c-0.5,0-1,0-1.6,0
				c0,0.2,0,0.4,0,0.6c-0.1,0.8-0.1,1.7-0.2,2.5c-0.1,0.6-0.5,0.9-1,0.9c-0.6,0-0.8-0.3-0.8-1c0-0.4,0-0.8,0-1.2
				c0-0.6,0.1-1.1,0.1-1.7C43.8,32,43.3,32,42.8,32z M29.5,32c-0.1,1.7-0.2,3.3-0.2,5c0.5,0,1,0,1.5,0c0-0.7,0-1.3,0-2
				c0-0.7,0.1-1.3,0.1-2c0.2,0,0.3,0,0.4,0c0.2,0,0.4,0,0.6,0c0.4,0,0.6,0.2,0.6,0.5c0,0.3-0.2,0.6-0.5,0.7
				c-0.2,0.1-0.5,0.1-0.8,0.1c0.3,0.9,0.6,1.8,0.9,2.7c0.5,0,1,0,1.6,0c-0.3-0.7-0.6-1.5-1-2.2c0.2-0.1,0.3-0.1,0.4-0.2
				c0.6-0.3,0.9-0.9,0.7-1.6c-0.1-0.6-0.6-1-1.3-1C31.6,32,30.6,32,29.5,32z M23.6,32.1c-0.7-0.1-1.3-0.2-1.9-0.1
				c-0.6,0.1-1.1,0.4-1.2,1c-0.2,0.6,0.1,1,0.5,1.4c0.4,0.3,0.7,0.6,1.1,0.9c0.1,0.1,0.2,0.3,0.2,0.5c0,0.1-0.3,0.3-0.4,0.3
				c-0.4,0-0.8-0.1-1.2-0.1c-0.1,0-0.2-0.1-0.3-0.1c0,0.4,0.1,0.8,0.1,1.2c0.6,0,1.3,0.1,1.9,0.1c0.3,0,0.6-0.1,0.9-0.3
				c0.7-0.4,0.9-1.3,0.3-1.9c-0.2-0.3-0.5-0.4-0.8-0.7c-0.2-0.2-0.4-0.3-0.6-0.5c-0.2-0.3-0.2-0.5,0.2-0.6c0.2-0.1,0.4-0.1,0.6,0
				c0.3,0,0.6,0.1,0.9,0.2C23.6,32.8,23.6,32.5,23.6,32.1z M52.9,33.1c0-0.4,0-0.7,0-1c-1.6,0-3.1,0-4.7,0c0,0.4,0,0.7,0,1
				c0.5,0,1,0,1.6,0c-0.1,1.3-0.1,2.6-0.2,3.9c0.5,0,1,0,1.5,0c0.1-1.3,0.1-2.6,0.2-3.9C51.9,33.1,52.4,33.1,52.9,33.1z M25.8,33.1
				c-0.1,1.3-0.1,2.6-0.2,3.9c0.5,0,1,0,1.5,0c0.1-1.3,0.1-2.6,0.2-3.9c0.6,0,1.1,0,1.6,0c0-0.3,0-0.7,0-1c-1.5,0-3.1,0-4.7,0
				c0,0.4,0,0.7,0,1C24.7,33.1,25.2,33.1,25.8,33.1z M53.6,32c-0.1,1.7-0.1,3.3-0.2,5c0.5,0,1,0,1.6,0c0.1-1.7,0.1-3.3,0.2-5
				C54.6,32,54.1,32,53.6,32z M34.6,37c0.5,0,1.1,0,1.6,0c0.1-1.7,0.1-3.3,0.2-4.9c-0.5,0-1,0-1.5,0C34.8,33.7,34.7,35.3,34.6,37z
				 M19.3,37c0.1-1.7,0.1-3.3,0.2-5c-0.5,0-1,0-1.5,0c-0.1,1.7-0.2,3.3-0.2,5C18.2,37,18.7,37,19.3,37z"/>
			<linearGradient id="SVGID_30_" gradientUnits="userSpaceOnUse" x1="14.8368" y1="59.9265" x2="67.8652" y2="29.3105">
				<stop  offset="5.376340e-03" style="stop-color:#FFFFFF"/>
				<stop  offset="0.25" style="stop-color:#9C9B9B"/>
				<stop  offset="0.5" style="stop-color:#FFFFFF"/>
				<stop  offset="0.75" style="stop-color:#9C9B9B"/>
				<stop  offset="1" style="stop-color:#E3EAE8"/>
			</linearGradient>
			<path class="st29" d="M58.8,36c-0.9,0-1.4-0.6-1.4-1.4c0-0.9,0.7-1.6,1.5-1.6c0.8,0,1.4,0.6,1.4,1.5C60.3,35.4,59.7,36.1,58.8,36
				z"/>
			<linearGradient id="SVGID_31_" gradientUnits="userSpaceOnUse" x1="10.823" y1="51.965" x2="67.9626" y2="18.9755">
				<stop  offset="5.376340e-03" style="stop-color:#FFFFFF"/>
				<stop  offset="0.25" style="stop-color:#9C9B9B"/>
				<stop  offset="0.5" style="stop-color:#FFFFFF"/>
				<stop  offset="0.75" style="stop-color:#9C9B9B"/>
				<stop  offset="1" style="stop-color:#E3EAE8"/>
			</linearGradient>
			<path class="st30" d="M38.7,36.1c0-0.4,0-0.8,0.1-1.2c0.4,0,0.8,0,1.2,0.1c0.2,0,0.3,0.2,0.3,0.5c0,0.3-0.1,0.5-0.4,0.5
				C39.6,36.1,39.2,36.1,38.7,36.1z"/>
			<linearGradient id="SVGID_32_" gradientUnits="userSpaceOnUse" x1="10.7691" y1="49.9975" x2="68.0244" y2="16.9411">
				<stop  offset="5.376340e-03" style="stop-color:#FFFFFF"/>
				<stop  offset="0.25" style="stop-color:#9C9B9B"/>
				<stop  offset="0.5" style="stop-color:#FFFFFF"/>
				<stop  offset="0.75" style="stop-color:#9C9B9B"/>
				<stop  offset="1" style="stop-color:#E3EAE8"/>
			</linearGradient>
			<path class="st31" d="M38.9,34c0-0.4,0-0.7,0-1c0.4,0,0.7,0,1.1,0c0.2,0,0.4,0.2,0.4,0.4c0,0.3-0.1,0.5-0.4,0.5
				C39.6,34,39.2,34,38.9,34z"/>
			<linearGradient id="SVGID_33_" gradientUnits="userSpaceOnUse" x1="9.2" y1="37.2729" x2="78.3512" y2="-2.6516">
				<stop  offset="5.376340e-03" style="stop-color:#FFFFFF"/>
				<stop  offset="0.25" style="stop-color:#9C9B9B"/>
				<stop  offset="0.5" style="stop-color:#FFFFFF"/>
				<stop  offset="0.75" style="stop-color:#9C9B9B"/>
				<stop  offset="1" style="stop-color:#E3EAE8"/>
			</linearGradient>
			<path class="st32" d="M13.5,33.1c0.4,0,0.7,0,1,0c0.4,0,0.7,0.3,0.8,0.6c0.2,0.6,0.1,1.2-0.2,1.8c-0.2,0.3-0.6,0.4-0.9,0.5
				c-0.3,0-0.5,0-0.8,0C13.4,35,13.4,34,13.5,33.1z"/>
		</g>
	</g>
	<linearGradient id="SVGID_34_" gradientUnits="userSpaceOnUse" x1="29.0339" y1="27.0746" x2="52.0057" y2="4.1028">
		<stop  offset="5.376340e-03" style="stop-color:#FFFFFF"/>
		<stop  offset="0.25" style="stop-color:#9C9B9B"/>
		<stop  offset="0.5" style="stop-color:#FFFFFF"/>
		<stop  offset="0.75" style="stop-color:#9C9B9B"/>
		<stop  offset="1" style="stop-color:#E3EAE8"/>
	</linearGradient>
	<path class="st33" d="M36.8,15c0,0.1,0,0.2,0,0.2c-0.1,1.5-0.2,3.1-0.2,4.6c0,0.9,0,1.9,0,2.8c0,0.2-0.1,0.5-0.2,0.7
		c-0.4,0.9-0.9,1.8-1.3,2.8c0,0.1-0.1,0.2-0.1,0.2c-0.4,0-0.7,0-1.1,0c0.1-1,0.1-2.1,0.2-3.1c0.2,0,0.4,0,0.6,0c0-1,0-2.1,0-3.1
		c-0.1,0-0.2,0-0.4,0c0-0.4,0-0.8,0.1-1.2c0.1-0.9,0.2-1.8,0.6-2.6C35.2,15.4,35.9,15.1,36.8,15z"/>
	<linearGradient id="SVGID_35_" gradientUnits="userSpaceOnUse" x1="31.2734" y1="29.3142" x2="54.2453" y2="6.3423">
		<stop  offset="5.376340e-03" style="stop-color:#FFFFFF"/>
		<stop  offset="0.25" style="stop-color:#9C9B9B"/>
		<stop  offset="0.5" style="stop-color:#FFFFFF"/>
		<stop  offset="0.75" style="stop-color:#9C9B9B"/>
		<stop  offset="1" style="stop-color:#E3EAE8"/>
	</linearGradient>
	<path class="st34" d="M42.7,25.9c-0.9-1.9-1.9-3.9-2.8-5.8c-0.7,0-1.3,0-1.9,0c-0.3,0.5-0.5,1.1-0.8,1.6c0,0-0.1,0-0.1,0
		c0.1-2.2,0.3-4.4,0.4-6.7c0,0,0,0,0,0c0.8,0,1.5,0,2.2,0.1c0.5,0.1,0.9,0.5,1.2,0.9c0.3,0.6,0.5,1.3,0.6,2c0.1,0.9,0.6,1.7,1.1,2.4
		c0.1,0.1,0.2,0.3,0.2,0.4c0,1.6,0,3.2,0,4.7C42.8,25.8,42.8,25.8,42.7,25.9C42.7,25.9,42.7,25.9,42.7,25.9z"/>
	<g>
		<linearGradient id="SVGID_36_" gradientUnits="userSpaceOnUse" x1="7.0059" y1="29.3042" x2="69.8779" y2="21.6398">
			<stop  offset="0" style="stop-color:#FFF27F"/>
			<stop  offset="0.1844" style="stop-color:#D4C100"/>
			<stop  offset="0.245" style="stop-color:#DCCA18"/>
			<stop  offset="0.3724" style="stop-color:#F1E255"/>
			<stop  offset="0.4525" style="stop-color:#FFF27F"/>
			<stop  offset="0.7095" style="stop-color:#D4C100"/>
			<stop  offset="0.7752" style="stop-color:#DCCA18"/>
			<stop  offset="0.9132" style="stop-color:#F1E255"/>
			<stop  offset="1" style="stop-color:#FFF27F"/>
		</linearGradient>
		<path class="st35" d="M38.4,20.9c0.4,0,0.7,0,1.1,0c1.3,2.5,2.6,5,3.9,7.5c0,0,0,0,0.1,0c0-2.5,0-5,0-7.5c0.4,0,0.7,0,1.1,0
			c1.3,1.4,2.6,2.8,3.9,4.3c0-1.5,0-2.9,0-4.3c0.6,0,1.2,0,1.8,0c0,2.6,0,5.1,0,7.7c-0.3,0-0.7,0-1,0c-0.1,0-0.2-0.1-0.3-0.2
			c-1.2-1.3-2.3-2.6-3.5-3.9c0,0-0.1-0.1-0.1-0.2c0,0,0,0-0.1,0c0,1.4,0,2.8,0,4.2c-1.3,0-2.5,0-3.8,0c-0.3-0.6-0.6-1.1-0.9-1.7
			c-1.1,0-2.1,0-3.3,0c-0.3,0.6-0.6,1.1-0.9,1.7c-0.6,0-1.3,0-2,0C35.8,26,37.1,23.4,38.4,20.9z M38.9,23.7c-0.3,0.5-0.5,1-0.8,1.5
			c0.5,0,1,0,1.5,0C39.4,24.7,39.2,24.2,38.9,23.7z"/>
		<linearGradient id="SVGID_37_" gradientUnits="userSpaceOnUse" x1="6.4315" y1="24.5917" x2="69.3035" y2="16.9273">
			<stop  offset="0" style="stop-color:#FFF27F"/>
			<stop  offset="0.1844" style="stop-color:#D4C100"/>
			<stop  offset="0.245" style="stop-color:#DCCA18"/>
			<stop  offset="0.3724" style="stop-color:#F1E255"/>
			<stop  offset="0.4525" style="stop-color:#FFF27F"/>
			<stop  offset="0.7095" style="stop-color:#D4C100"/>
			<stop  offset="0.7752" style="stop-color:#DCCA18"/>
			<stop  offset="0.9132" style="stop-color:#F1E255"/>
			<stop  offset="1" style="stop-color:#FFF27F"/>
		</linearGradient>
		<path class="st36" d="M16.5,24.8c0.5,0.4,1,0.7,1.5,1.1c-0.8,2-2.8,3.2-5.4,2.9c-2.4-0.3-4.1-2.3-4.3-4.7
			c-0.2-2.9,1.6-4.8,3.7-5.3c2.6-0.6,4.8,0.5,5.8,2.4c-0.5,0.4-1,0.7-1.5,1.1c-0.1-0.1-0.1-0.1-0.2-0.2c-0.6-1.2-1.6-1.7-2.9-1.7
			c-1.6,0-3,1.3-3,3.2c0,1.4,0.7,2.7,1.8,3.2c1.5,0.7,3.3,0.1,4.1-1.3C16.2,25.3,16.3,25.1,16.5,24.8z"/>
		<linearGradient id="SVGID_38_" gradientUnits="userSpaceOnUse" x1="7.3463" y1="32.0961" x2="70.2183" y2="24.4317">
			<stop  offset="0" style="stop-color:#FFF27F"/>
			<stop  offset="0.1844" style="stop-color:#D4C100"/>
			<stop  offset="0.245" style="stop-color:#DCCA18"/>
			<stop  offset="0.3724" style="stop-color:#F1E255"/>
			<stop  offset="0.4525" style="stop-color:#FFF27F"/>
			<stop  offset="0.7095" style="stop-color:#D4C100"/>
			<stop  offset="0.7752" style="stop-color:#DCCA18"/>
			<stop  offset="0.9132" style="stop-color:#F1E255"/>
			<stop  offset="1" style="stop-color:#FFF27F"/>
		</linearGradient>
		<path class="st37" d="M71.7,22.8c-0.5,0.4-1,0.7-1.5,1c-0.1,0-0.1-0.1-0.2-0.1c-0.6-0.8-1.5-1.2-2.5-1.2c-0.9,0-1.8,0.2-2.5,0.9
			c-0.9,0.9-0.7,2.4,0.3,3.2c1.1,0.8,3.1,0.7,4.1,0c0.2-0.1,0.4-0.3,0.3-0.6c-0.6,0-1.1,0-1.7,0c0-0.6,0-1.1,0-1.7
			c1.2,0,2.4,0,3.6,0c0,0.1,0,0.2,0,0.3c0,0.6,0,1.1,0,1.7c0,0.5-0.2,0.8-0.5,1.2c-0.7,0.8-1.6,1.2-2.6,1.4
			c-1.3,0.2-2.5,0.1-3.7-0.5c-2.1-1-2.9-3.5-1.7-5.4c0.6-1,1.5-1.6,2.6-1.9c1.7-0.4,3.3-0.3,4.8,0.8C71,22,71.3,22.4,71.7,22.8z"/>
		<linearGradient id="SVGID_39_" gradientUnits="userSpaceOnUse" x1="6.8022" y1="27.6332" x2="69.6742" y2="19.9688">
			<stop  offset="0" style="stop-color:#FFF27F"/>
			<stop  offset="0.1844" style="stop-color:#D4C100"/>
			<stop  offset="0.245" style="stop-color:#DCCA18"/>
			<stop  offset="0.3724" style="stop-color:#F1E255"/>
			<stop  offset="0.4525" style="stop-color:#FFF27F"/>
			<stop  offset="0.7095" style="stop-color:#D4C100"/>
			<stop  offset="0.7752" style="stop-color:#DCCA18"/>
			<stop  offset="0.9132" style="stop-color:#F1E255"/>
			<stop  offset="1" style="stop-color:#FFF27F"/>
		</linearGradient>
		<path class="st38" d="M26.7,28.6c0-2.6,0-5.1,0-7.7c2.4,0,4.8,0,7.2,0c0,0.6,0,1.1,0,1.7c-1.8,0-3.6,0-5.4,0c0,0.4,0,0.7,0,1
			c1.2,0,2.3,0,3.5,0c0,0.6,0,1.1,0,1.7c-1.2,0-2.3,0-3.5,0c0,0.5,0,1,0,1.5c1.9,0,3.8,0,5.7,0c0,0.6,0,1.1,0,1.7
			C31.7,28.6,29.2,28.6,26.7,28.6z"/>
		<linearGradient id="SVGID_40_" gradientUnits="userSpaceOnUse" x1="7.2119" y1="30.9938" x2="70.0839" y2="23.3294">
			<stop  offset="0" style="stop-color:#FFF27F"/>
			<stop  offset="0.1844" style="stop-color:#D4C100"/>
			<stop  offset="0.245" style="stop-color:#DCCA18"/>
			<stop  offset="0.3724" style="stop-color:#F1E255"/>
			<stop  offset="0.4525" style="stop-color:#FFF27F"/>
			<stop  offset="0.7095" style="stop-color:#D4C100"/>
			<stop  offset="0.7752" style="stop-color:#DCCA18"/>
			<stop  offset="0.9132" style="stop-color:#F1E255"/>
			<stop  offset="1" style="stop-color:#FFF27F"/>
		</linearGradient>
		<path class="st39" d="M60,25.1c0-1.4,0-2.8,0-4.2c0.6,0,1.2,0,1.8,0c0,2.6,0,5.1,0,7.7c-0.3,0-0.7,0-1,0c-0.1,0-0.2-0.1-0.2-0.2
			c-1.2-1.3-2.4-2.6-3.6-4c0,0-0.1-0.1-0.2-0.1c0,1.4,0,2.8,0,4.3c-0.6,0-1.2,0-1.8,0c0-2.6,0-5.1,0-7.7c0.4,0,0.7,0,1.1,0
			C57.3,22.3,58.6,23.7,60,25.1C59.9,25.1,59.9,25.1,60,25.1z"/>
		<linearGradient id="SVGID_41_" gradientUnits="userSpaceOnUse" x1="6.6859" y1="26.679" x2="69.5579" y2="19.0146">
			<stop  offset="0" style="stop-color:#FFF27F"/>
			<stop  offset="0.1844" style="stop-color:#D4C100"/>
			<stop  offset="0.245" style="stop-color:#DCCA18"/>
			<stop  offset="0.3724" style="stop-color:#F1E255"/>
			<stop  offset="0.4525" style="stop-color:#FFF27F"/>
			<stop  offset="0.7095" style="stop-color:#D4C100"/>
			<stop  offset="0.7752" style="stop-color:#DCCA18"/>
			<stop  offset="0.9132" style="stop-color:#F1E255"/>
			<stop  offset="1" style="stop-color:#FFF27F"/>
		</linearGradient>
		<path class="st40" d="M26,26.9c0,0.6,0,1.1,0,1.7c-2.3,0-4.7,0-7,0c0-2.6,0-5.1,0-7.7c0.6,0,1.2,0,1.8,0c0,2,0,4,0,6
			C22.5,26.9,24.2,26.9,26,26.9z"/>
		<linearGradient id="SVGID_42_" gradientUnits="userSpaceOnUse" x1="6.9296" y1="28.6783" x2="69.8016" y2="21.0139">
			<stop  offset="0" style="stop-color:#FFF27F"/>
			<stop  offset="0.1844" style="stop-color:#D4C100"/>
			<stop  offset="0.245" style="stop-color:#DCCA18"/>
			<stop  offset="0.3724" style="stop-color:#F1E255"/>
			<stop  offset="0.4525" style="stop-color:#FFF27F"/>
			<stop  offset="0.7095" style="stop-color:#D4C100"/>
			<stop  offset="0.7752" style="stop-color:#DCCA18"/>
			<stop  offset="0.9132" style="stop-color:#F1E255"/>
			<stop  offset="1" style="stop-color:#FFF27F"/>
		</linearGradient>
		<path class="st41" d="M51.4,28.6c0-2.4,0-4.7,0-7.1c-0.3,0.1-0.5,0.2-0.8,0.3c0,0,0,0-0.1-0.1c0.3-0.6,0.7-1.2,0.7-1.9
			c0-0.7-0.4-1.3-0.7-1.9c0,0,0.1,0,0.1-0.1c0.2,0.1,0.4,0.2,0.6,0.3c0.9,0.6,1.9,0.6,2.8,0c0.2-0.1,0.4-0.2,0.6-0.2
			c-0.3,0.6-0.7,1.2-0.8,1.9c0,0.7,0.3,1.3,0.6,2c0,0,0,0.1-0.1,0.1c-0.4-0.2-0.8-0.4-1.2-0.6c0,2.5,0,4.9,0,7.4
			C52.6,28.6,52,28.6,51.4,28.6z"/>
	</g>
</g>
</svg>
